<?xml version="1.0" standalone="yes"?>
<!DOCTYPE svg PUBLIC "-//W3C//DTD SVG 1.1//EN" "http://www.w3.org/Graphics/SVG/1.1/DTD/svg11.dtd"[
<!ENTITY E10 'stroke:none;opacity:1;fill:rgb(68,154,223);'><!ENTITY E17 'matrix(1.00 0.00 0.00 1.00 164.00 164.00 ) '><!ENTITY E7 'matrix(1.00 0.00 0.00 1.00 0.00 0.00 ) '><!ENTITY E12 'stroke:none;fill-rule:evenodd;opacity:1;fill:rgb(255,255,255);'><!ENTITY E4 'stroke:rgb(169,169,169);fill:none;stroke-linecap:butt;stroke-miterlimit:9;opacity:1;stroke-width:2;stroke-linejoin:miter;'><!ENTITY E14 'M 5.5001 19.484 10.6493 19.484 16.2743 10.2485 19.3728 10.2485 M 14.6769 17.1481 16.3089 19.4828 19.2202 19.4828 M 5.500199 10.2437 10.7586 10.2437 12.1652 12.8707 '><!ENTITY E11 'M 19.156 13.888 19.156 10.3647 19.156 6.841399 25.2585 10.3647 22.2072 12.1264 z '><!ENTITY E13 'M 19.156 22.97 19.156 19.4467 19.156 15.9234 25.2585 19.4467 22.2072 21.2084 z '><!ENTITY E15 'stroke:rgb(255,255,255);fill:none;stroke-linecap:butt;stroke-miterlimit:9;opacity:1;stroke-width:2;stroke-linejoin:miter;'><!ENTITY E1 'stroke:rgb(169,169,169);fill:none;stroke-linecap:butt;stroke-miterlimit:9;opacity:1;stroke-width:1;stroke-linejoin:miter;'><!ENTITY E23 'matrix(1.00 0.00 0.00 1.00 164.00 404.00 ) '><!ENTITY E5 'stroke:none;opacity:1;fill:rgb(255,255,255);'><!ENTITY E19 'matrix(1.00 0.00 0.00 1.00 164.00 244.00 ) '><!ENTITY E9 'matrix(1.00 0.00 0.00 1.00 164.00 84.00 ) '><!ENTITY E21 'matrix(1.00 0.00 0.00 1.00 164.00 324.00 ) '><!ENTITY E3 'stroke:none;opacity:1;fill:rgb(238,192,75);'><!ENTITY E34 'stroke:rgb(0,0,0);fill:rgb(0,0,0);'><!ENTITY E33 'stroke-linecap:butt;shape-rendering:crispEdges;'>
]>
<svg width="233.5172" height="452.8252" id="SvgGdi_output" xmlns="http://www.w3.org/2000/svg" xmlns:xlink="http://www.w3.org/1999/xlink">
  <style>text { fill: #000; } @media (prefers-color-scheme: dark) { text { fill: #eee; } }</style>
  <rect id="background" height="100.00%" style="fill:none;" width="100.00%" y="0.00" x="0.00" />
  <g style="shape-rendering:auto;" id="root_group">
    <line y1="19.00" style="stroke:rgb(169,169,169);fill:none;stroke-linecap:butt;stroke-miterlimit:9;opacity:1;stroke-width:1;stroke-linejoin:miter;" id="2" x2="160.00" y2="19.00" x1="118.00" />
    <line y1="99.00" style="stroke:rgb(169,169,169);fill:none;stroke-linecap:butt;stroke-miterlimit:9;opacity:1;stroke-width:1;stroke-linejoin:miter;" id="3" x2="160.00" y2="99.00" x1="118.00" />
    <line y1="99.00" style="stroke:rgb(169,169,169);fill:none;stroke-linecap:butt;stroke-miterlimit:9;opacity:1;stroke-width:1;stroke-linejoin:miter;" id="4" x2="160.00" y2="179.00" x1="118.00" />
    <line y1="99.00" style="stroke:rgb(169,169,169);fill:none;stroke-linecap:butt;stroke-miterlimit:9;opacity:1;stroke-width:1;stroke-linejoin:miter;" id="5" x2="160.00" y2="259.00" x1="118.00" />
    <line y1="99.00" style="stroke:rgb(169,169,169);fill:none;stroke-linecap:butt;stroke-miterlimit:9;opacity:1;stroke-width:1;stroke-linejoin:miter;" id="6" x2="160.00" y2="339.00" x1="118.00" />
    <line y1="99.00" style="stroke:rgb(169,169,169);fill:none;stroke-linecap:butt;stroke-miterlimit:9;opacity:1;stroke-width:1;stroke-linejoin:miter;" id="7" x2="160.00" y2="419.00" x1="118.00" />
    <line y1="19.00" style="stroke:rgb(169,169,169);fill:none;stroke-linecap:butt;stroke-miterlimit:9;opacity:1;stroke-width:1;stroke-linejoin:miter;" id="8" x2="80.00" y2="19.00" x1="38.00" />
    <ellipse id="41" cy="15.00" cx="15.00" rx="15.00" ry="15.00" style="stroke:none;opacity:1;fill:rgb(238,192,75);" transform="matrix(1.00 0.00 0.00 1.00 164.00 4.00 ) " />
    <ellipse id="43" cy="19.00" cx="179.00" rx="15.00" ry="15.00" style="fill:url(#44_HatchBrush);" />
    <ellipse id="48" cy="19.00" cx="164.00" rx="3.00" ry="3.00" style="stroke:rgb(169,169,169);fill:none;stroke-linecap:butt;stroke-miterlimit:9;opacity:1;stroke-width:2;stroke-linejoin:miter;" />
    <ellipse id="49" cy="19.00" cx="164.00" rx="3.00" ry="3.00" style="stroke:none;opacity:1;fill:rgb(255,255,255);" />
    <text id="50" transform="matrix(1.00 0.00 0.00 1.00 0.00 0.00 ) " x="164.00px" y="39.00px" style="stroke:none;clip-path:url(#52_text_clipper);font-family:Microsoft Sans Serif;font-size:8.25pt;opacity:1;">
      <tspan dy="8.25pt" id="54">Start</tspan>
    </text>
    <text id="56" transform="matrix(1.00 0.00 0.00 1.00 0.00 0.00 ) " x="164.00px" y="51.45px" style="stroke:none;clip-path:url(#58_text_clipper);font-family:Microsoft Sans Serif;font-size:8.25pt;opacity:1;">
      <tspan dy="8.25pt" id="60">Acquisition</tspan>
    </text>
    <ellipse id="64" cy="15.00" cx="15.00" transform="matrix(1.00 0.00 0.00 1.00 164.00 84.00 ) " rx="15.00" ry="15.00" style="stroke:none;opacity:1;fill:rgb(68,154,223);" />
    <path d="M 19.156 13.888 19.156 10.3647 19.156 6.841399 25.2585 10.3647 22.2072 12.1264 z " style="stroke:none;fill-rule:evenodd;opacity:1;fill:rgb(255,255,255);" transform="matrix(1.00 0.00 0.00 1.00 164.00 84.00 ) " id="69" />
    <path d="M 19.156 22.97 19.156 19.4467 19.156 15.9234 25.2585 19.4467 22.2072 21.2084 z " style="stroke:none;fill-rule:evenodd;opacity:1;fill:rgb(255,255,255);" transform="matrix(1.00 0.00 0.00 1.00 164.00 84.00 ) " id="70" />
    <path d="M 5.5001 19.484 10.6493 19.484 16.2743 10.2485 19.3728 10.2485 M 14.6769 17.1481 16.3089 19.4828 19.2202 19.4828 M 5.500199 10.2437 10.7586 10.2437 12.1652 12.8707 " style="stroke:rgb(255,255,255);fill:none;stroke-linecap:butt;stroke-miterlimit:9;opacity:1;stroke-width:2;stroke-linejoin:miter;" transform="matrix(1.00 0.00 0.00 1.00 164.00 84.00 ) " id="71" />
    <text id="72" transform="matrix(1.00 0.00 0.00 1.00 0.00 0.00 ) " x="164.00px" y="119.00px" style="stroke:none;clip-path:url(#74_text_clipper);font-family:Microsoft Sans Serif;font-size:8.25pt;opacity:1;">
      <tspan dy="8.25pt" id="76">EulerAngle</tspan>
    </text>
    <ellipse id="78" cy="15.00" cx="15.00" transform="matrix(1.00 0.00 0.00 1.00 164.00 164.00 ) " rx="15.00" ry="15.00" style="stroke:none;opacity:1;fill:rgb(68,154,223);" />
    <path d="M 19.156 13.888 19.156 10.3647 19.156 6.841399 25.2585 10.3647 22.2072 12.1264 z " style="stroke:none;fill-rule:evenodd;opacity:1;fill:rgb(255,255,255);" transform="matrix(1.00 0.00 0.00 1.00 164.00 164.00 ) " id="79" />
    <path d="M 19.156 22.97 19.156 19.4467 19.156 15.9234 25.2585 19.4467 22.2072 21.2084 z " style="stroke:none;fill-rule:evenodd;opacity:1;fill:rgb(255,255,255);" transform="matrix(1.00 0.00 0.00 1.00 164.00 164.00 ) " id="80" />
    <path d="M 5.5001 19.484 10.6493 19.484 16.2743 10.2485 19.3728 10.2485 M 14.6769 17.1481 16.3089 19.4828 19.2202 19.4828 M 5.500199 10.2437 10.7586 10.2437 12.1652 12.8707 " style="stroke:rgb(255,255,255);fill:none;stroke-linecap:butt;stroke-miterlimit:9;opacity:1;stroke-width:2;stroke-linejoin:miter;" transform="matrix(1.00 0.00 0.00 1.00 164.00 164.00 ) " id="81" />
    <text id="82" transform="matrix(1.00 0.00 0.00 1.00 0.00 0.00 ) " x="164.00px" y="199.00px" style="stroke:none;clip-path:url(#84_text_clipper);font-family:Microsoft Sans Serif;font-size:8.25pt;opacity:1;">
      <tspan dy="8.25pt" id="86">Quaternion</tspan>
    </text>
    <ellipse id="88" cy="15.00" cx="15.00" transform="matrix(1.00 0.00 0.00 1.00 164.00 244.00 ) " rx="15.00" ry="15.00" style="stroke:none;opacity:1;fill:rgb(68,154,223);" />
    <path d="M 19.156 13.888 19.156 10.3647 19.156 6.841399 25.2585 10.3647 22.2072 12.1264 z " style="stroke:none;fill-rule:evenodd;opacity:1;fill:rgb(255,255,255);" transform="matrix(1.00 0.00 0.00 1.00 164.00 244.00 ) " id="89" />
    <path d="M 19.156 22.97 19.156 19.4467 19.156 15.9234 25.2585 19.4467 22.2072 21.2084 z " style="stroke:none;fill-rule:evenodd;opacity:1;fill:rgb(255,255,255);" transform="matrix(1.00 0.00 0.00 1.00 164.00 244.00 ) " id="90" />
    <path d="M 5.5001 19.484 10.6493 19.484 16.2743 10.2485 19.3728 10.2485 M 14.6769 17.1481 16.3089 19.4828 19.2202 19.4828 M 5.500199 10.2437 10.7586 10.2437 12.1652 12.8707 " style="stroke:rgb(255,255,255);fill:none;stroke-linecap:butt;stroke-miterlimit:9;opacity:1;stroke-width:2;stroke-linejoin:miter;" transform="matrix(1.00 0.00 0.00 1.00 164.00 244.00 ) " id="91" />
    <text id="92" transform="matrix(1.00 0.00 0.00 1.00 0.00 0.00 ) " x="164.00px" y="279.00px" style="stroke:none;clip-path:url(#94_text_clipper);font-family:Microsoft Sans Serif;font-size:8.25pt;opacity:1;">
      <tspan dy="8.25pt" id="96">Acceleration</tspan>
    </text>
    <ellipse id="98" cy="15.00" cx="15.00" transform="matrix(1.00 0.00 0.00 1.00 164.00 324.00 ) " rx="15.00" ry="15.00" style="stroke:none;opacity:1;fill:rgb(68,154,223);" />
    <path d="M 19.156 13.888 19.156 10.3647 19.156 6.841399 25.2585 10.3647 22.2072 12.1264 z " style="stroke:none;fill-rule:evenodd;opacity:1;fill:rgb(255,255,255);" transform="matrix(1.00 0.00 0.00 1.00 164.00 324.00 ) " id="99" />
    <path d="M 19.156 22.97 19.156 19.4467 19.156 15.9234 25.2585 19.4467 22.2072 21.2084 z " style="stroke:none;fill-rule:evenodd;opacity:1;fill:rgb(255,255,255);" transform="matrix(1.00 0.00 0.00 1.00 164.00 324.00 ) " id="100" />
    <path d="M 5.5001 19.484 10.6493 19.484 16.2743 10.2485 19.3728 10.2485 M 14.6769 17.1481 16.3089 19.4828 19.2202 19.4828 M 5.500199 10.2437 10.7586 10.2437 12.1652 12.8707 " style="stroke:rgb(255,255,255);fill:none;stroke-linecap:butt;stroke-miterlimit:9;opacity:1;stroke-width:2;stroke-linejoin:miter;" transform="matrix(1.00 0.00 0.00 1.00 164.00 324.00 ) " id="101" />
    <text id="102" transform="matrix(1.00 0.00 0.00 1.00 0.00 0.00 ) " x="164.00px" y="359.00px" style="stroke:none;clip-path:url(#104_text_clipper);font-family:Microsoft Sans Serif;font-size:8.25pt;opacity:1;">
      <tspan dy="8.25pt" id="106">Gravity</tspan>
    </text>
    <ellipse id="108" cy="15.00" cx="15.00" transform="matrix(1.00 0.00 0.00 1.00 164.00 404.00 ) " rx="15.00" ry="15.00" style="stroke:none;opacity:1;fill:rgb(68,154,223);" />
    <path d="M 19.156 13.888 19.156 10.3647 19.156 6.841399 25.2585 10.3647 22.2072 12.1264 z " style="stroke:none;fill-rule:evenodd;opacity:1;fill:rgb(255,255,255);" transform="matrix(1.00 0.00 0.00 1.00 164.00 404.00 ) " id="109" />
    <path d="M 19.156 22.97 19.156 19.4467 19.156 15.9234 25.2585 19.4467 22.2072 21.2084 z " style="stroke:none;fill-rule:evenodd;opacity:1;fill:rgb(255,255,255);" transform="matrix(1.00 0.00 0.00 1.00 164.00 404.00 ) " id="110" />
    <path d="M 5.5001 19.484 10.6493 19.484 16.2743 10.2485 19.3728 10.2485 M 14.6769 17.1481 16.3089 19.4828 19.2202 19.4828 M 5.500199 10.2437 10.7586 10.2437 12.1652 12.8707 " style="stroke:rgb(255,255,255);fill:none;stroke-linecap:butt;stroke-miterlimit:9;opacity:1;stroke-width:2;stroke-linejoin:miter;" transform="matrix(1.00 0.00 0.00 1.00 164.00 404.00 ) " id="111" />
    <text id="112" transform="matrix(1.00 0.00 0.00 1.00 0.00 0.00 ) " x="164.00px" y="439.00px" style="stroke:none;clip-path:url(#114_text_clipper);font-family:Microsoft Sans Serif;font-size:8.25pt;opacity:1;">
      <tspan dy="8.25pt" id="116">Temperature</tspan>
    </text>
    <ellipse id="118" cy="15.00" cx="15.00" rx="15.00" ry="15.00" style="stroke:none;opacity:1;fill:rgb(238,192,75);" transform="matrix(1.00 0.00 0.00 1.00 84.00 4.00 ) " />
    <ellipse id="119" cy="19.00" cx="99.00" rx="15.00" ry="15.00" style="fill:url(#120_HatchBrush);" />
    <ellipse id="124" cy="19.00" cx="84.00" rx="3.00" ry="3.00" style="stroke:rgb(169,169,169);fill:none;stroke-linecap:butt;stroke-miterlimit:9;opacity:1;stroke-width:2;stroke-linejoin:miter;" />
    <ellipse id="125" cy="19.00" cx="84.00" rx="3.00" ry="3.00" style="stroke:none;opacity:1;fill:rgb(255,255,255);" />
    <text id="126" transform="matrix(1.00 0.00 0.00 1.00 0.00 0.00 ) " x="84.00px" y="39.00px" style="stroke:none;clip-path:url(#128_text_clipper);font-family:Microsoft Sans Serif;font-size:8.25pt;opacity:1;">
      <tspan dy="8.25pt" id="130">Configure</tspan>
    </text>
    <text id="132" transform="matrix(1.00 0.00 0.00 1.00 0.00 0.00 ) " x="84.00px" y="51.45px" style="stroke:none;clip-path:url(#134_text_clipper);font-family:Microsoft Sans Serif;font-size:8.25pt;opacity:1;">
      <tspan dy="8.25pt" id="136">Headstage64</tspan>
    </text>
    <ellipse id="138" cy="15.00" cx="15.00" rx="15.00" ry="15.00" style="stroke:none;opacity:1;fill:rgb(238,192,75);" transform="matrix(1.00 0.00 0.00 1.00 84.00 84.00 ) " />
    <ellipse id="139" cy="99.00" cx="99.00" rx="15.00" ry="15.00" style="fill:url(#140_HatchBrush);" />
    <ellipse id="144" cy="99.00" cx="84.00" rx="3.00" ry="3.00" style="stroke:rgb(169,169,169);fill:none;stroke-linecap:butt;stroke-miterlimit:9;opacity:1;stroke-width:2;stroke-linejoin:miter;" />
    <ellipse id="145" cy="99.00" cx="84.00" rx="3.00" ry="3.00" style="stroke:none;opacity:1;fill:rgb(255,255,255);" />
    <text id="146" transform="matrix(1.00 0.00 0.00 1.00 0.00 0.00 ) " x="84.00px" y="119.00px" style="stroke:none;clip-path:url(#148_text_clipper);font-family:Microsoft Sans Serif;font-size:8.25pt;opacity:1;">
      <tspan dy="8.25pt" id="150">Bno055Data</tspan>
    </text>
    <ellipse id="152" cy="15.00" cx="15.00" rx="15.00" ry="15.00" style="stroke:none;opacity:1;fill:rgb(238,192,75);" transform="matrix(1.00 0.00 0.00 1.00 4.00 4.00 ) " />
    <ellipse id="153" cy="19.00" cx="19.00" rx="15.00" ry="15.00" style="fill:url(#154_HatchBrush);" />
    <ellipse id="158" cy="19.00" cx="4.00" rx="3.00" ry="3.00" style="stroke:rgb(169,169,169);fill:none;stroke-linecap:butt;stroke-miterlimit:9;opacity:1;stroke-width:2;stroke-linejoin:miter;" />
    <ellipse id="159" cy="19.00" cx="4.00" rx="3.00" ry="3.00" style="stroke:none;opacity:1;fill:rgb(255,255,255);" />
    <text id="160" transform="matrix(1.00 0.00 0.00 1.00 0.00 0.00 ) " x="4.00px" y="39.00px" style="stroke:none;clip-path:url(#162_text_clipper);font-family:Microsoft Sans Serif;font-size:8.25pt;opacity:1;">
      <tspan dy="8.25pt" id="164">Create</tspan>
    </text>
    <text id="166" transform="matrix(1.00 0.00 0.00 1.00 0.00 0.00 ) " x="4.00px" y="51.45px" style="stroke:none;clip-path:url(#168_text_clipper);font-family:Microsoft Sans Serif;font-size:8.25pt;opacity:1;">
      <tspan dy="8.25pt" id="170">Context</tspan>
    </text>
  </g>
  <defs id="clips_hatches_and_gradients">
    <pattern id="44_HatchBrush" patternContentUnits="userSpaceOnUse" height="8.00" style="stroke-linecap:butt;shape-rendering:crispEdges;" patternUnits="userSpaceOnUse" width="8.00" y="0.00" x="0.00">
      <rect id="45" height="8.00" style="fill:rgb(255,255,255);" width="8.00" y="0.00" x="0.00" />
      <line y1="0.00" style="stroke:rgb(0,0,0);fill:rgb(0,0,0);" id="46" x2="8.00" y2="8.00" x1="0.00" />
      <line y1="0.00" style="stroke:rgb(0,0,0);fill:rgb(0,0,0);" id="47" x2="0.00" y2="8.00" x1="8.00" />
    </pattern>
    <clipPath id="52_text_clipper">
      <rect x="164.00" y="39.00" width="58.66" height="27.65" id="53" />
    </clipPath>
    <clipPath id="58_text_clipper">
      <rect x="164.00" y="51.45" width="58.66" height="27.65" id="59" />
    </clipPath>
    <clipPath id="74_text_clipper">
      <rect x="164.00" y="119.00" width="59.22" height="13.83" id="75" />
    </clipPath>
    <clipPath id="84_text_clipper">
      <rect x="164.00" y="199.00" width="59.78" height="13.83" id="85" />
    </clipPath>
    <clipPath id="94_text_clipper">
      <rect x="164.00" y="279.00" width="66.14" height="13.83" id="95" />
    </clipPath>
    <clipPath id="104_text_clipper">
      <rect x="164.00" y="359.00" width="39.62" height="13.83" id="105" />
    </clipPath>
    <clipPath id="114_text_clipper">
      <rect x="164.00" y="439.00" width="68.52" height="13.83" id="115" />
    </clipPath>
    <pattern id="120_HatchBrush" patternContentUnits="userSpaceOnUse" height="8.00" style="stroke-linecap:butt;shape-rendering:crispEdges;" patternUnits="userSpaceOnUse" width="8.00" y="0.00" x="0.00">
      <rect id="121" height="8.00" style="fill:rgb(255,255,255);" width="8.00" y="0.00" x="0.00" />
      <line y1="0.00" style="stroke:rgb(0,0,0);fill:rgb(0,0,0);" id="122" x2="8.00" y2="8.00" x1="0.00" />
      <line y1="0.00" style="stroke:rgb(0,0,0);fill:rgb(0,0,0);" id="123" x2="0.00" y2="8.00" x1="8.00" />
    </pattern>
    <clipPath id="128_text_clipper">
      <rect x="84.00" y="39.00" width="71.06" height="27.65" id="129" />
    </clipPath>
    <clipPath id="134_text_clipper">
      <rect x="84.00" y="51.45" width="71.06" height="27.65" id="135" />
    </clipPath>
    <pattern id="140_HatchBrush" patternContentUnits="userSpaceOnUse" height="8.00" style="stroke-linecap:butt;shape-rendering:crispEdges;" patternUnits="userSpaceOnUse" width="8.00" y="0.00" x="0.00">
      <rect id="141" height="8.00" style="fill:rgb(255,255,255);" width="8.00" y="0.00" x="0.00" />
      <line y1="0.00" style="stroke:rgb(0,0,0);fill:rgb(0,0,0);" id="142" x2="8.00" y2="8.00" x1="0.00" />
      <line y1="0.00" style="stroke:rgb(0,0,0);fill:rgb(0,0,0);" id="143" x2="0.00" y2="8.00" x1="8.00" />
    </pattern>
    <clipPath id="148_text_clipper">
      <rect x="84.00" y="119.00" width="66.65" height="13.83" id="149" />
    </clipPath>
    <pattern id="154_HatchBrush" patternContentUnits="userSpaceOnUse" height="8.00" style="stroke-linecap:butt;shape-rendering:crispEdges;" patternUnits="userSpaceOnUse" width="8.00" y="0.00" x="0.00">
      <rect id="155" height="8.00" style="fill:rgb(255,255,255);" width="8.00" y="0.00" x="0.00" />
      <line y1="0.00" style="stroke:rgb(0,0,0);fill:rgb(0,0,0);" id="156" x2="8.00" y2="8.00" x1="0.00" />
      <line y1="0.00" style="stroke:rgb(0,0,0);fill:rgb(0,0,0);" id="157" x2="0.00" y2="8.00" x1="8.00" />
    </pattern>
    <clipPath id="162_text_clipper">
      <rect x="4.00" y="39.00" width="42.71" height="27.65" id="163" />
    </clipPath>
    <clipPath id="168_text_clipper">
      <rect x="4.00" y="51.45" width="42.71" height="27.65" id="169" />
    </clipPath>
  </defs>
</svg>