<?xml version="1.0" standalone="yes"?>
<!DOCTYPE svg PUBLIC "-//W3C//DTD SVG 1.1//EN" "http://www.w3.org/Graphics/SVG/1.1/DTD/svg11.dtd"[
<!ENTITY E7 'matrix(1.00 0.00 0.00 1.00 0.00 0.00 ) '><!ENTITY E4 'stroke:rgb(169,169,169);fill:none;stroke-linecap:butt;stroke-miterlimit:9;opacity:1;stroke-width:2;stroke-linejoin:miter;'><!ENTITY E18 'stroke:none;opacity:1;fill:rgb(91,178,126);'><!ENTITY E20 'stroke:rgb(255,255,255);fill:none;stroke-linecap:butt;stroke-miterlimit:9;opacity:1;stroke-width:2;stroke-linejoin:miter;'><!ENTITY E1 'stroke:rgb(169,169,169);fill:none;stroke-linecap:butt;stroke-miterlimit:9;opacity:1;stroke-width:1;stroke-linejoin:miter;'><!ENTITY E5 'stroke:none;opacity:1;fill:rgb(255,255,255);'><!ENTITY E17 'matrix(1.00 0.00 0.00 1.00 84.00 84.00 ) '><!ENTITY E25 'matrix(1.00 0.00 0.00 1.00 4.00 84.00 ) '><!ENTITY E3 'stroke:none;opacity:1;fill:rgb(238,192,75);'><!ENTITY E32 'stroke:rgb(0,0,0);fill:rgb(0,0,0);'><!ENTITY E31 'stroke-linecap:butt;shape-rendering:crispEdges;'><!ENTITY E16 'M 31.179 5.2 C 34.9985 11.0918 34.9814 18.682 31.13552 24.557 '>
]>
<svg width="239.3682" height="160.4756" id="SvgGdi_output" xmlns="http://www.w3.org/2000/svg" xmlns:xlink="http://www.w3.org/1999/xlink">
  <style>text { fill: #000; } @media (prefers-color-scheme: dark) { text { fill: #eee; } }</style>
  <rect id="background" height="100.00%" style="fill:none;" width="100.00%" y="0.00" x="0.00" />
  <g style="shape-rendering:auto;" id="root_group">
    <line y1="19.00" style="stroke:rgb(169,169,169);fill:none;stroke-linecap:butt;stroke-miterlimit:9;opacity:1;stroke-width:1;stroke-linejoin:miter;" id="2" x2="160.00" y2="19.00" x1="118.00" />
    <line y1="99.00" style="stroke:rgb(169,169,169);fill:none;stroke-linecap:butt;stroke-miterlimit:9;opacity:1;stroke-width:1;stroke-linejoin:miter;" id="3" x2="160.00" y2="99.00" x1="118.00" />
    <line y1="19.00" style="stroke:rgb(169,169,169);fill:none;stroke-linecap:butt;stroke-miterlimit:9;opacity:1;stroke-width:1;stroke-linejoin:miter;" id="4" x2="80.00" y2="19.00" x1="38.00" />
    <line y1="99.00" style="stroke:rgb(169,169,169);fill:none;stroke-linecap:butt;stroke-miterlimit:9;opacity:1;stroke-width:1;stroke-linejoin:miter;" id="5" x2="80.00" y2="99.00" x1="38.00" />
    <ellipse id="38" cy="15.00" cx="15.00" rx="15.00" ry="15.00" style="stroke:none;opacity:1;fill:rgb(238,192,75);" transform="matrix(1.00 0.00 0.00 1.00 164.00 4.00 ) " />
    <ellipse id="40" cy="19.00" cx="179.00" rx="15.00" ry="15.00" style="fill:url(#41_HatchBrush);" />
    <ellipse id="45" cy="19.00" cx="164.00" rx="3.00" ry="3.00" style="stroke:rgb(169,169,169);fill:none;stroke-linecap:butt;stroke-miterlimit:9;opacity:1;stroke-width:2;stroke-linejoin:miter;" />
    <ellipse id="46" cy="19.00" cx="164.00" rx="3.00" ry="3.00" style="stroke:none;opacity:1;fill:rgb(255,255,255);" />
    <text id="47" transform="matrix(1.00 0.00 0.00 1.00 0.00 0.00 ) " x="164.00px" y="39.00px" style="stroke:none;clip-path:url(#49_text_clipper);font-family:Microsoft Sans Serif;font-size:8.25pt;opacity:1;">
      <tspan dy="8.25pt" id="51">Start</tspan>
    </text>
    <text id="53" transform="matrix(1.00 0.00 0.00 1.00 0.00 0.00 ) " x="164.00px" y="51.45px" style="stroke:none;clip-path:url(#55_text_clipper);font-family:Microsoft Sans Serif;font-size:8.25pt;opacity:1;">
      <tspan dy="8.25pt" id="57">Acquisition</tspan>
    </text>
    <ellipse id="59" cy="15.00" cx="15.00" rx="15.00" ry="15.00" style="stroke:none;opacity:1;fill:rgb(238,192,75);" transform="matrix(1.00 0.00 0.00 1.00 164.00 84.00 ) " />
    <ellipse id="60" cy="99.00" cx="179.00" rx="15.00" ry="15.00" style="fill:url(#61_HatchBrush);" />
    <ellipse id="65" cy="99.00" cx="164.00" rx="3.00" ry="3.00" style="stroke:rgb(169,169,169);fill:none;stroke-linecap:butt;stroke-miterlimit:9;opacity:1;stroke-width:2;stroke-linejoin:miter;" />
    <ellipse id="66" cy="99.00" cx="164.00" rx="3.00" ry="3.00" style="stroke:none;opacity:1;fill:rgb(255,255,255);" />
    <text id="67" transform="matrix(1.00 0.00 0.00 1.00 0.00 0.00 ) " x="164.00px" y="119.00px" style="stroke:none;clip-path:url(#69_text_clipper);font-family:Microsoft Sans Serif;font-size:8.25pt;opacity:1;">
      <tspan dy="8.25pt" id="71">Headstage64</tspan>
    </text>
    <text id="73" transform="matrix(1.00 0.00 0.00 1.00 0.00 0.00 ) " x="164.00px" y="131.45px" style="stroke:none;clip-path:url(#75_text_clipper);font-family:Microsoft Sans Serif;font-size:8.25pt;opacity:1;">
      <tspan dy="8.25pt" id="77">Electrical</tspan>
    </text>
    <text id="79" transform="matrix(1.00 0.00 0.00 1.00 0.00 0.00 ) " x="164.00px" y="143.90px" style="stroke:none;clip-path:url(#81_text_clipper);font-family:Microsoft Sans Serif;font-size:8.25pt;opacity:1;">
      <tspan dy="8.25pt" id="83">StimulatorTrig</tspan>
    </text>
    <ellipse id="85" cy="15.00" cx="15.00" rx="15.00" ry="15.00" style="stroke:none;opacity:1;fill:rgb(238,192,75);" transform="matrix(1.00 0.00 0.00 1.00 84.00 4.00 ) " />
    <ellipse id="86" cy="19.00" cx="99.00" rx="15.00" ry="15.00" style="fill:url(#87_HatchBrush);" />
    <ellipse id="91" cy="19.00" cx="84.00" rx="3.00" ry="3.00" style="stroke:rgb(169,169,169);fill:none;stroke-linecap:butt;stroke-miterlimit:9;opacity:1;stroke-width:2;stroke-linejoin:miter;" />
    <ellipse id="92" cy="19.00" cx="84.00" rx="3.00" ry="3.00" style="stroke:none;opacity:1;fill:rgb(255,255,255);" />
    <text id="93" transform="matrix(1.00 0.00 0.00 1.00 0.00 0.00 ) " x="84.00px" y="39.00px" style="stroke:none;clip-path:url(#95_text_clipper);font-family:Microsoft Sans Serif;font-size:8.25pt;opacity:1;">
      <tspan dy="8.25pt" id="97">Configure</tspan>
    </text>
    <text id="99" transform="matrix(1.00 0.00 0.00 1.00 0.00 0.00 ) " x="84.00px" y="51.45px" style="stroke:none;clip-path:url(#101_text_clipper);font-family:Microsoft Sans Serif;font-size:8.25pt;opacity:1;">
      <tspan dy="8.25pt" id="103">Headstage64</tspan>
    </text>
    <path d="M 31.179 5.2 C 34.9985 11.0918 34.9814 18.682 31.13552 24.557 " style="stroke:rgb(169,169,169);fill:none;stroke-linecap:butt;stroke-miterlimit:9;opacity:1;stroke-width:2;stroke-linejoin:miter;" transform="matrix(1.00 0.00 0.00 1.00 84.00 84.00 ) " id="108" />
    <ellipse id="109" cy="15.00" cx="15.00" transform="matrix(1.00 0.00 0.00 1.00 84.00 84.00 ) " rx="15.00" ry="15.00" style="stroke:none;opacity:1;fill:rgb(91,178,126);" />
    <path style="stroke:rgb(255,255,255);fill:none;stroke-linecap:butt;stroke-miterlimit:9;opacity:1;stroke-width:2;stroke-linejoin:miter;" transform="matrix(1.00 0.00 0.00 1.00 84.00 84.00 ) " id="114" d="M 16.849 10.062 23.4027 10.062 M 16.6038 19.6084 23.3505 19.6084 M 12.3075 17.1615 7.5719 21.8971 M 7.577335 17.152 12.31704 21.8917 M 6.564136 10.0047 13.30904 10.0047 M 9.936636 6.6288 9.936636 13.3806 " />
    <ellipse id="115" cy="16.33" cx="19.93" transform="matrix(1.00 0.00 0.00 1.00 84.00 84.00 ) " rx="1.30" ry="1.30" style="stroke:none;opacity:1;fill:rgb(255,255,255);" />
    <ellipse id="116" cy="22.83" cx="19.93" transform="matrix(1.00 0.00 0.00 1.00 84.00 84.00 ) " rx="1.30" ry="1.30" style="stroke:none;opacity:1;fill:rgb(255,255,255);" />
    <text id="117" transform="matrix(1.00 0.00 0.00 1.00 0.00 0.00 ) " x="84.00px" y="119.00px" style="stroke:none;clip-path:url(#119_text_clipper);font-family:Microsoft Sans Serif;font-size:8.25pt;opacity:1;">
      <tspan dy="8.25pt" id="121">Boolean</tspan>
    </text>
    <ellipse id="123" cy="15.00" cx="15.00" rx="15.00" ry="15.00" style="stroke:none;opacity:1;fill:rgb(238,192,75);" transform="matrix(1.00 0.00 0.00 1.00 4.00 4.00 ) " />
    <ellipse id="124" cy="19.00" cx="19.00" rx="15.00" ry="15.00" style="fill:url(#125_HatchBrush);" />
    <ellipse id="129" cy="19.00" cx="4.00" rx="3.00" ry="3.00" style="stroke:rgb(169,169,169);fill:none;stroke-linecap:butt;stroke-miterlimit:9;opacity:1;stroke-width:2;stroke-linejoin:miter;" />
    <ellipse id="130" cy="19.00" cx="4.00" rx="3.00" ry="3.00" style="stroke:none;opacity:1;fill:rgb(255,255,255);" />
    <text id="131" transform="matrix(1.00 0.00 0.00 1.00 0.00 0.00 ) " x="4.00px" y="39.00px" style="stroke:none;clip-path:url(#133_text_clipper);font-family:Microsoft Sans Serif;font-size:8.25pt;opacity:1;">
      <tspan dy="8.25pt" id="135">Create</tspan>
    </text>
    <text id="137" transform="matrix(1.00 0.00 0.00 1.00 0.00 0.00 ) " x="4.00px" y="51.45px" style="stroke:none;clip-path:url(#139_text_clipper);font-family:Microsoft Sans Serif;font-size:8.25pt;opacity:1;">
      <tspan dy="8.25pt" id="141">Context</tspan>
    </text>
    <path d="M 31.179 5.2 C 34.9985 11.0918 34.9814 18.682 31.13552 24.557 " style="stroke:rgb(169,169,169);fill:none;stroke-linecap:butt;stroke-miterlimit:9;opacity:1;stroke-width:2;stroke-linejoin:miter;" transform="matrix(1.00 0.00 0.00 1.00 4.00 84.00 ) " id="143" />
    <ellipse id="144" cy="15.00" cx="15.00" transform="matrix(1.00 0.00 0.00 1.00 4.00 84.00 ) " rx="15.00" ry="15.00" style="stroke:none;opacity:1;fill:rgb(91,178,126);" />
    <path transform="matrix(1.00 0.00 0.00 1.00 4.00 84.00 ) " id="148" d="M 8.5404 18.526 C 8.154759 18.14036 8.426559 17.3734 8.7512 17.0487 9.0693 16.7306 9.8857 16.65478 10.3397 17.03595 L 12.5301 18.80525 12.82094 9.664146 C 12.82094 9.305857 13.42471 8.739877 14.05254 8.739877 14.79871 8.739877 15.36764 9.316096 15.36764 9.695367 L 15.5586 15.04327 20.0645 16.74627 C 20.25033 16.81 20.49544 16.99536 20.49518 17.22225 L 20.49808 21.04985 19.11318 23.37955 19.11318 24.51755 13.23218 24.51755 13.23218 23.37955 z " style="stroke:none;fill-rule:evenodd;opacity:1;fill:rgb(255,255,255);" />
    <path style="stroke:rgb(255,255,255);fill:none;stroke-linecap:butt;stroke-miterlimit:9;opacity:1;stroke-width:2;stroke-linejoin:miter;" transform="matrix(1.00 0.00 0.00 1.00 4.00 84.00 ) " id="149" d="M 10.482 12.156 C 9.063601 9.8878 10.57304 6.5688 13.2149 6.1474 15.8164 5.52346 18.4832 8.0098 18.0432 10.6485 L 17.97693 11.02591 " />
    <text id="150" transform="matrix(1.00 0.00 0.00 1.00 0.00 0.00 ) " x="4.00px" y="119.00px" style="stroke:none;clip-path:url(#152_text_clipper);font-family:Microsoft Sans Serif;font-size:8.25pt;opacity:1;">
      <tspan dy="8.25pt" id="154">MouseButton</tspan>
    </text>
    <text id="156" transform="matrix(1.00 0.00 0.00 1.00 0.00 0.00 ) " x="4.00px" y="131.45px" style="stroke:none;clip-path:url(#158_text_clipper);font-family:Microsoft Sans Serif;font-size:8.25pt;opacity:1;">
      <tspan dy="8.25pt" id="160">Down</tspan>
    </text>
  </g>
  <defs id="clips_hatches_and_gradients">
    <pattern id="41_HatchBrush" patternContentUnits="userSpaceOnUse" height="8.00" style="stroke-linecap:butt;shape-rendering:crispEdges;" patternUnits="userSpaceOnUse" width="8.00" y="0.00" x="0.00">
      <rect id="42" height="8.00" style="fill:rgb(255,255,255);" width="8.00" y="0.00" x="0.00" />
      <line y1="0.00" style="stroke:rgb(0,0,0);fill:rgb(0,0,0);" id="43" x2="8.00" y2="8.00" x1="0.00" />
      <line y1="0.00" style="stroke:rgb(0,0,0);fill:rgb(0,0,0);" id="44" x2="0.00" y2="8.00" x1="8.00" />
    </pattern>
    <clipPath id="49_text_clipper">
      <rect x="164.00" y="39.00" width="58.66" height="27.65" id="50" />
    </clipPath>
    <clipPath id="55_text_clipper">
      <rect x="164.00" y="51.45" width="58.66" height="27.65" id="56" />
    </clipPath>
    <pattern id="61_HatchBrush" patternContentUnits="userSpaceOnUse" height="8.00" style="stroke-linecap:butt;shape-rendering:crispEdges;" patternUnits="userSpaceOnUse" width="8.00" y="0.00" x="0.00">
      <rect id="62" height="8.00" style="fill:rgb(255,255,255);" width="8.00" y="0.00" x="0.00" />
      <line y1="0.00" style="stroke:rgb(0,0,0);fill:rgb(0,0,0);" id="63" x2="8.00" y2="8.00" x1="0.00" />
      <line y1="0.00" style="stroke:rgb(0,0,0);fill:rgb(0,0,0);" id="64" x2="0.00" y2="8.00" x1="8.00" />
    </pattern>
    <clipPath id="69_text_clipper">
      <rect x="164.00" y="119.00" width="74.37" height="41.48" id="70" />
    </clipPath>
    <clipPath id="75_text_clipper">
      <rect x="164.00" y="131.45" width="74.37" height="41.48" id="76" />
    </clipPath>
    <clipPath id="81_text_clipper">
      <rect x="164.00" y="143.90" width="74.37" height="41.48" id="82" />
    </clipPath>
    <pattern id="87_HatchBrush" patternContentUnits="userSpaceOnUse" height="8.00" style="stroke-linecap:butt;shape-rendering:crispEdges;" patternUnits="userSpaceOnUse" width="8.00" y="0.00" x="0.00">
      <rect id="88" height="8.00" style="fill:rgb(255,255,255);" width="8.00" y="0.00" x="0.00" />
      <line y1="0.00" style="stroke:rgb(0,0,0);fill:rgb(0,0,0);" id="89" x2="8.00" y2="8.00" x1="0.00" />
      <line y1="0.00" style="stroke:rgb(0,0,0);fill:rgb(0,0,0);" id="90" x2="0.00" y2="8.00" x1="8.00" />
    </pattern>
    <clipPath id="95_text_clipper">
      <rect x="84.00" y="39.00" width="71.06" height="27.65" id="96" />
    </clipPath>
    <clipPath id="101_text_clipper">
      <rect x="84.00" y="51.45" width="71.06" height="27.65" id="102" />
    </clipPath>
    <clipPath id="119_text_clipper">
      <rect x="84.00" y="119.00" width="45.31" height="13.83" id="120" />
    </clipPath>
    <pattern id="125_HatchBrush" patternContentUnits="userSpaceOnUse" height="8.00" style="stroke-linecap:butt;shape-rendering:crispEdges;" patternUnits="userSpaceOnUse" width="8.00" y="0.00" x="0.00">
      <rect id="126" height="8.00" style="fill:rgb(255,255,255);" width="8.00" y="0.00" x="0.00" />
      <line y1="0.00" style="stroke:rgb(0,0,0);fill:rgb(0,0,0);" id="127" x2="8.00" y2="8.00" x1="0.00" />
      <line y1="0.00" style="stroke:rgb(0,0,0);fill:rgb(0,0,0);" id="128" x2="0.00" y2="8.00" x1="8.00" />
    </pattern>
    <clipPath id="133_text_clipper">
      <rect x="4.00" y="39.00" width="42.71" height="27.65" id="134" />
    </clipPath>
    <clipPath id="139_text_clipper">
      <rect x="4.00" y="51.45" width="42.71" height="27.65" id="140" />
    </clipPath>
    <clipPath id="152_text_clipper">
      <rect x="4.00" y="119.00" width="70.42" height="27.65" id="153" />
    </clipPath>
    <clipPath id="158_text_clipper">
      <rect x="4.00" y="131.45" width="70.42" height="27.65" id="159" />
    </clipPath>
  </defs>
</svg>