<?xml version="1.0" standalone="yes"?>
<!DOCTYPE svg PUBLIC "-//W3C//DTD SVG 1.1//EN" "http://www.w3.org/Graphics/SVG/1.1/DTD/svg11.dtd"[
<!ENTITY E5 'stroke:none;opacity:1;fill:rgb(255,255,255);'><!ENTITY E4 'stroke:rgb(169,169,169);fill:none;stroke-linecap:butt;stroke-miterlimit:9;opacity:1;stroke-width:2;stroke-linejoin:miter;'><!ENTITY E17 'stroke:rgb(0,0,0);fill:rgb(0,0,0);'><!ENTITY E16 'stroke-linecap:butt;shape-rendering:crispEdges;'><!ENTITY E1 'stroke:rgb(169,169,169);fill:none;stroke-linecap:butt;stroke-miterlimit:9;opacity:1;stroke-width:1;stroke-linejoin:miter;'><!ENTITY E3 'stroke:none;opacity:1;fill:rgb(238,192,75);'><!ENTITY E7 'matrix(1.00 0.00 0.00 1.00 0.00 0.00 ) '>
]>
<svg width="223.6559" height="80.47558" id="SvgGdi_output" xmlns="http://www.w3.org/2000/svg" xmlns:xlink="http://www.w3.org/1999/xlink">
  <style>text { fill: #000; } @media (prefers-color-scheme: dark) { text { fill: #eee; } }</style>
  <rect id="background" height="100.00%" style="fill:none;" width="100.00%" y="0.00" x="0.00" />
  <g style="shape-rendering:auto;" id="root_group">
    <line y1="19.00" style="stroke:rgb(169,169,169);fill:none;stroke-linecap:butt;stroke-miterlimit:9;opacity:1;stroke-width:1;stroke-linejoin:miter;" id="2" x2="160.00" y2="19.00" x1="118.00" />
    <line y1="19.00" style="stroke:rgb(169,169,169);fill:none;stroke-linecap:butt;stroke-miterlimit:9;opacity:1;stroke-width:1;stroke-linejoin:miter;" id="3" x2="80.00" y2="19.00" x1="38.00" />
    <ellipse id="36" cy="15.00" cx="15.00" rx="15.00" ry="15.00" style="stroke:none;opacity:1;fill:rgb(238,192,75);" transform="matrix(1.00 0.00 0.00 1.00 164.00 4.00 ) " />
    <ellipse id="38" cy="19.00" cx="179.00" rx="15.00" ry="15.00" style="fill:url(#39_HatchBrush);" />
    <ellipse id="43" cy="19.00" cx="164.00" rx="3.00" ry="3.00" style="stroke:rgb(169,169,169);fill:none;stroke-linecap:butt;stroke-miterlimit:9;opacity:1;stroke-width:2;stroke-linejoin:miter;" />
    <ellipse id="44" cy="19.00" cx="164.00" rx="3.00" ry="3.00" style="stroke:none;opacity:1;fill:rgb(255,255,255);" />
    <text id="45" transform="matrix(1.00 0.00 0.00 1.00 0.00 0.00 ) " x="164.00px" y="39.00px" style="stroke:none;clip-path:url(#47_text_clipper);font-family:Microsoft Sans Serif;font-size:8.25pt;opacity:1;">
      <tspan dy="8.25pt" id="49">Start</tspan>
    </text>
    <text id="51" transform="matrix(1.00 0.00 0.00 1.00 0.00 0.00 ) " x="164.00px" y="51.45px" style="stroke:none;clip-path:url(#53_text_clipper);font-family:Microsoft Sans Serif;font-size:8.25pt;opacity:1;">
      <tspan dy="8.25pt" id="55">Acquisition</tspan>
    </text>
    <ellipse id="57" cy="15.00" cx="15.00" rx="15.00" ry="15.00" style="stroke:none;opacity:1;fill:rgb(238,192,75);" transform="matrix(1.00 0.00 0.00 1.00 84.00 4.00 ) " />
    <ellipse id="58" cy="19.00" cx="99.00" rx="15.00" ry="15.00" style="fill:url(#59_HatchBrush);" />
    <ellipse id="63" cy="19.00" cx="84.00" rx="3.00" ry="3.00" style="stroke:rgb(169,169,169);fill:none;stroke-linecap:butt;stroke-miterlimit:9;opacity:1;stroke-width:2;stroke-linejoin:miter;" />
    <ellipse id="64" cy="19.00" cx="84.00" rx="3.00" ry="3.00" style="stroke:none;opacity:1;fill:rgb(255,255,255);" />
    <text id="65" transform="matrix(1.00 0.00 0.00 1.00 0.00 0.00 ) " x="84.00px" y="39.00px" style="stroke:none;clip-path:url(#67_text_clipper);font-family:Microsoft Sans Serif;font-size:8.25pt;opacity:1;">
      <tspan dy="8.25pt" id="69">Configure</tspan>
    </text>
    <text id="71" transform="matrix(1.00 0.00 0.00 1.00 0.00 0.00 ) " x="84.00px" y="51.45px" style="stroke:none;clip-path:url(#73_text_clipper);font-family:Microsoft Sans Serif;font-size:8.25pt;opacity:1;">
      <tspan dy="8.25pt" id="75">Neuropixels</tspan>
    </text>
    <text id="77" transform="matrix(1.00 0.00 0.00 1.00 0.00 0.00 ) " x="84.00px" y="63.90px" style="stroke:none;clip-path:url(#79_text_clipper);font-family:Microsoft Sans Serif;font-size:8.25pt;opacity:1;">
      <tspan dy="8.25pt" id="81">V2eBetaHeadst</tspan>
    </text>
    <ellipse id="83" cy="15.00" cx="15.00" rx="15.00" ry="15.00" style="stroke:none;opacity:1;fill:rgb(238,192,75);" transform="matrix(1.00 0.00 0.00 1.00 4.00 4.00 ) " />
    <ellipse id="84" cy="19.00" cx="19.00" rx="15.00" ry="15.00" style="fill:url(#85_HatchBrush);" />
    <ellipse id="89" cy="19.00" cx="4.00" rx="3.00" ry="3.00" style="stroke:rgb(169,169,169);fill:none;stroke-linecap:butt;stroke-miterlimit:9;opacity:1;stroke-width:2;stroke-linejoin:miter;" />
    <ellipse id="90" cy="19.00" cx="4.00" rx="3.00" ry="3.00" style="stroke:none;opacity:1;fill:rgb(255,255,255);" />
    <text id="91" transform="matrix(1.00 0.00 0.00 1.00 0.00 0.00 ) " x="4.00px" y="39.00px" style="stroke:none;clip-path:url(#93_text_clipper);font-family:Microsoft Sans Serif;font-size:8.25pt;opacity:1;">
      <tspan dy="8.25pt" id="95">Create</tspan>
    </text>
    <text id="97" transform="matrix(1.00 0.00 0.00 1.00 0.00 0.00 ) " x="4.00px" y="51.45px" style="stroke:none;clip-path:url(#99_text_clipper);font-family:Microsoft Sans Serif;font-size:8.25pt;opacity:1;">
      <tspan dy="8.25pt" id="101">Context</tspan>
    </text>
  </g>
  <defs id="clips_hatches_and_gradients">
    <pattern id="39_HatchBrush" patternContentUnits="userSpaceOnUse" height="8.00" style="stroke-linecap:butt;shape-rendering:crispEdges;" patternUnits="userSpaceOnUse" width="8.00" y="0.00" x="0.00">
      <rect id="40" height="8.00" style="fill:rgb(255,255,255);" width="8.00" y="0.00" x="0.00" />
      <line y1="0.00" style="stroke:rgb(0,0,0);fill:rgb(0,0,0);" id="41" x2="8.00" y2="8.00" x1="0.00" />
      <line y1="0.00" style="stroke:rgb(0,0,0);fill:rgb(0,0,0);" id="42" x2="0.00" y2="8.00" x1="8.00" />
    </pattern>
    <clipPath id="47_text_clipper">
      <rect x="164.00" y="39.00" width="58.66" height="27.65" id="48" />
    </clipPath>
    <clipPath id="53_text_clipper">
      <rect x="164.00" y="51.45" width="58.66" height="27.65" id="54" />
    </clipPath>
    <pattern id="59_HatchBrush" patternContentUnits="userSpaceOnUse" height="8.00" style="stroke-linecap:butt;shape-rendering:crispEdges;" patternUnits="userSpaceOnUse" width="8.00" y="0.00" x="0.00">
      <rect id="60" height="8.00" style="fill:rgb(255,255,255);" width="8.00" y="0.00" x="0.00" />
      <line y1="0.00" style="stroke:rgb(0,0,0);fill:rgb(0,0,0);" id="61" x2="8.00" y2="8.00" x1="0.00" />
      <line y1="0.00" style="stroke:rgb(0,0,0);fill:rgb(0,0,0);" id="62" x2="0.00" y2="8.00" x1="8.00" />
    </pattern>
    <clipPath id="67_text_clipper">
      <rect x="84.00" y="39.00" width="79.87" height="41.48" id="68" />
    </clipPath>
    <clipPath id="73_text_clipper">
      <rect x="84.00" y="51.45" width="79.87" height="41.48" id="74" />
    </clipPath>
    <clipPath id="79_text_clipper">
      <rect x="84.00" y="63.90" width="79.87" height="41.48" id="80" />
    </clipPath>
    <pattern id="85_HatchBrush" patternContentUnits="userSpaceOnUse" height="8.00" style="stroke-linecap:butt;shape-rendering:crispEdges;" patternUnits="userSpaceOnUse" width="8.00" y="0.00" x="0.00">
      <rect id="86" height="8.00" style="fill:rgb(255,255,255);" width="8.00" y="0.00" x="0.00" />
      <line y1="0.00" style="stroke:rgb(0,0,0);fill:rgb(0,0,0);" id="87" x2="8.00" y2="8.00" x1="0.00" />
      <line y1="0.00" style="stroke:rgb(0,0,0);fill:rgb(0,0,0);" id="88" x2="0.00" y2="8.00" x1="8.00" />
    </pattern>
    <clipPath id="93_text_clipper">
      <rect x="4.00" y="39.00" width="42.71" height="27.65" id="94" />
    </clipPath>
    <clipPath id="99_text_clipper">
      <rect x="4.00" y="51.45" width="42.71" height="27.65" id="100" />
    </clipPath>
  </defs>
</svg>