<?xml version="1.0" standalone="yes"?>
<!DOCTYPE svg PUBLIC "-//W3C//DTD SVG 1.1//EN" "http://www.w3.org/Graphics/SVG/1.1/DTD/svg11.dtd"[
<!ENTITY E2 'matrix(1.00 0.00 0.00 1.00 84.00 4.00 ) '><!ENTITY E18 'stroke:rgb(0,0,0);fill:rgb(0,0,0);'><!ENTITY E5 'stroke:none;fill-rule:evenodd;opacity:1;fill:rgb(255,255,255);'><!ENTITY E10 'matrix(1.00 0.00 0.00 1.00 0.00 0.00 ) '>
]>
<svg width="117.0636" height="66.65038" id="SvgGdi_output" xmlns="http://www.w3.org/2000/svg" xmlns:xlink="http://www.w3.org/1999/xlink">
  <style>text { fill: #000; } @media (prefers-color-scheme: dark) { text { fill: #eee; } }</style>
  <rect id="background" height="100.00%" style="fill:none;" width="100.00%" y="0.00" x="0.00" />
  <g style="shape-rendering:auto;" id="root_group">
    <line y1="19.00" id="2" x2="80.00" y2="19.00" x1="38.00" style="stroke:rgb(169,169,169);fill:none;stroke-linecap:butt;stroke-miterlimit:9;opacity:1;stroke-width:1;stroke-linejoin:miter;" />
    <ellipse id="35" cy="15.00" cx="15.00" transform="matrix(1.00 0.00 0.00 1.00 84.00 4.00 ) " rx="15.00" ry="15.00" style="stroke:none;opacity:1;fill:rgb(68,154,223);" />
    <path style="stroke:none;fill-rule:evenodd;opacity:1;fill:rgb(255,255,255);" transform="matrix(1.00 0.00 0.00 1.00 84.00 4.00 ) " id="40" d="M 19.156 13.888 19.156 10.3647 19.156 6.841399 25.2585 10.3647 22.2072 12.1264 z " />
    <path style="stroke:none;fill-rule:evenodd;opacity:1;fill:rgb(255,255,255);" transform="matrix(1.00 0.00 0.00 1.00 84.00 4.00 ) " id="41" d="M 19.156 22.97 19.156 19.4467 19.156 15.9234 25.2585 19.4467 22.2072 21.2084 z " />
    <path transform="matrix(1.00 0.00 0.00 1.00 84.00 4.00 ) " id="42" d="M 5.5001 19.484 10.6493 19.484 16.2743 10.2485 19.3728 10.2485 M 14.6769 17.1481 16.3089 19.4828 19.2202 19.4828 M 5.500199 10.2437 10.7586 10.2437 12.1652 12.8707 " style="stroke:rgb(255,255,255);fill:none;stroke-linecap:butt;stroke-miterlimit:9;opacity:1;stroke-width:2;stroke-linejoin:miter;" />
    <text id="43" transform="matrix(1.00 0.00 0.00 1.00 0.00 0.00 ) " x="84.00px" y="39.00px" style="stroke:none;clip-path:url(#45_text_clipper);font-family:Microsoft Sans Serif;font-size:8.25pt;opacity:1;">
      <tspan dy="8.25pt" id="47">Clock</tspan>
    </text>
    <ellipse id="51" cy="15.00" cx="15.00" rx="15.00" ry="15.00" transform="matrix(1.00 0.00 0.00 1.00 4.00 4.00 ) " style="stroke:none;opacity:1;fill:rgb(238,192,75);" />
    <ellipse id="53" cy="19.00" cx="19.00" rx="15.00" ry="15.00" style="fill:url(#54_HatchBrush);" />
    <ellipse id="58" cy="19.00" cx="4.00" rx="3.00" ry="3.00" style="stroke:rgb(169,169,169);fill:none;stroke-linecap:butt;stroke-miterlimit:9;opacity:1;stroke-width:2;stroke-linejoin:miter;" />
    <ellipse id="59" cy="19.00" cx="4.00" rx="3.00" ry="3.00" style="stroke:none;opacity:1;fill:rgb(255,255,255);" />
    <text id="60" transform="matrix(1.00 0.00 0.00 1.00 0.00 0.00 ) " x="4.00px" y="39.00px" style="stroke:none;clip-path:url(#62_text_clipper);font-family:Microsoft Sans Serif;font-size:8.25pt;opacity:1;">
      <tspan dy="8.25pt" id="64">Heartbeat</tspan>
    </text>
    <text id="66" transform="matrix(1.00 0.00 0.00 1.00 0.00 0.00 ) " x="4.00px" y="51.45px" style="stroke:none;clip-path:url(#68_text_clipper);font-family:Microsoft Sans Serif;font-size:8.25pt;opacity:1;">
      <tspan dy="8.25pt" id="70">Data</tspan>
    </text>
  </g>
  <defs id="clips_hatches_and_gradients">
    <clipPath id="45_text_clipper">
      <rect x="84.00" y="39.00" width="32.06" height="13.83" id="46" />
    </clipPath>
    <pattern id="54_HatchBrush" patternContentUnits="userSpaceOnUse" height="8.00" patternUnits="userSpaceOnUse" width="8.00" y="0.00" x="0.00" style="stroke-linecap:butt;shape-rendering:crispEdges;">
      <rect id="55" height="8.00" style="fill:rgb(255,255,255);" width="8.00" y="0.00" x="0.00" />
      <line y1="0.00" style="stroke:rgb(0,0,0);fill:rgb(0,0,0);" id="56" x2="8.00" y2="8.00" x1="0.00" />
      <line y1="0.00" style="stroke:rgb(0,0,0);fill:rgb(0,0,0);" id="57" x2="0.00" y2="8.00" x1="8.00" />
    </pattern>
    <clipPath id="62_text_clipper">
      <rect x="4.00" y="39.00" width="53.41" height="27.65" id="63" />
    </clipPath>
    <clipPath id="68_text_clipper">
      <rect x="4.00" y="51.45" width="53.41" height="27.65" id="69" />
    </clipPath>
  </defs>
</svg>