<?xml version="1.0" standalone="yes"?>
<!DOCTYPE svg PUBLIC "-//W3C//DTD SVG 1.1//EN" "http://www.w3.org/Graphics/SVG/1.1/DTD/svg11.dtd"[
<!ENTITY E7 'matrix(1.00 0.00 0.00 1.00 0.00 0.00 ) '><!ENTITY E4 'stroke:rgb(169,169,169);fill:none;stroke-linecap:butt;stroke-miterlimit:9;opacity:1;stroke-width:2;stroke-linejoin:miter;'><!ENTITY E1 'stroke:rgb(169,169,169);fill:none;stroke-linecap:butt;stroke-miterlimit:9;opacity:1;stroke-width:1;stroke-linejoin:miter;'><!ENTITY E5 'stroke:none;opacity:1;fill:rgb(255,255,255);'><!ENTITY E3 'stroke:none;opacity:1;fill:rgb(238,192,75);'><!ENTITY E29 'stroke:rgb(0,0,0);fill:rgb(0,0,0);'><!ENTITY E28 'stroke-linecap:butt;shape-rendering:crispEdges;'>
]>
<svg width="309.2043" height="146.6504" id="SvgGdi_output" xmlns="http://www.w3.org/2000/svg" xmlns:xlink="http://www.w3.org/1999/xlink">
  <style>text { fill: #000; } @media (prefers-color-scheme: dark) { text { fill: #eee; } }</style>
  <rect id="background" height="100.00%" style="fill:none;" width="100.00%" y="0.00" x="0.00" />
  <g style="shape-rendering:auto;" id="root_group">
    <line y1="19.00" style="stroke:rgb(169,169,169);fill:none;stroke-linecap:butt;stroke-miterlimit:9;opacity:1;stroke-width:1;stroke-linejoin:miter;" id="2" x2="240.00" y2="19.00" x1="198.00" />
    <line y1="19.00" style="stroke:rgb(169,169,169);fill:none;stroke-linecap:butt;stroke-miterlimit:9;opacity:1;stroke-width:1;stroke-linejoin:miter;" id="3" x2="160.00" y2="19.00" x1="118.00" />
    <ellipse id="36" cy="15.00" cx="15.00" rx="15.00" ry="15.00" style="stroke:none;opacity:1;fill:rgb(238,192,75);" transform="matrix(1.00 0.00 0.00 1.00 244.00 4.00 ) " />
    <ellipse id="38" cy="19.00" cx="259.00" rx="15.00" ry="15.00" style="fill:url(#39_HatchBrush);" />
    <ellipse id="43" cy="19.00" cx="244.00" rx="3.00" ry="3.00" style="stroke:rgb(169,169,169);fill:none;stroke-linecap:butt;stroke-miterlimit:9;opacity:1;stroke-width:2;stroke-linejoin:miter;" />
    <ellipse id="44" cy="19.00" cx="244.00" rx="3.00" ry="3.00" style="stroke:none;opacity:1;fill:rgb(255,255,255);" />
    <text id="45" transform="matrix(1.00 0.00 0.00 1.00 0.00 0.00 ) " x="244.00px" y="39.00px" style="stroke:none;clip-path:url(#47_text_clipper);font-family:Microsoft Sans Serif;font-size:8.25pt;opacity:1;">
      <tspan dy="8.25pt" id="49">Start</tspan>
    </text>
    <text id="51" transform="matrix(1.00 0.00 0.00 1.00 0.00 0.00 ) " x="244.00px" y="51.45px" style="stroke:none;clip-path:url(#53_text_clipper);font-family:Microsoft Sans Serif;font-size:8.25pt;opacity:1;">
      <tspan dy="8.25pt" id="55">Acquisition</tspan>
    </text>
    <ellipse id="57" cy="15.00" cx="15.00" rx="15.00" ry="15.00" style="stroke:none;opacity:1;fill:rgb(238,192,75);" transform="matrix(1.00 0.00 0.00 1.00 244.00 84.00 ) " />
    <ellipse id="58" cy="99.00" cx="259.00" rx="15.00" ry="15.00" style="fill:url(#59_HatchBrush);" />
    <ellipse id="63" cy="99.00" cx="244.00" rx="3.00" ry="3.00" style="stroke:rgb(169,169,169);fill:none;stroke-linecap:butt;stroke-miterlimit:9;opacity:1;stroke-width:2;stroke-linejoin:miter;" />
    <ellipse id="64" cy="99.00" cx="244.00" rx="3.00" ry="3.00" style="stroke:none;opacity:1;fill:rgb(255,255,255);" />
    <text id="65" transform="matrix(1.00 0.00 0.00 1.00 0.00 0.00 ) " x="244.00px" y="119.00px" style="stroke:none;clip-path:url(#67_text_clipper);font-family:Microsoft Sans Serif;font-size:8.25pt;opacity:1;">
      <tspan dy="8.25pt" id="69">Breakout</tspan>
    </text>
    <text id="71" transform="matrix(1.00 0.00 0.00 1.00 0.00 0.00 ) " x="244.00px" y="131.45px" style="stroke:none;clip-path:url(#73_text_clipper);font-family:Microsoft Sans Serif;font-size:8.25pt;opacity:1;">
      <tspan dy="8.25pt" id="75">AnalogInput</tspan>
    </text>
    <ellipse id="77" cy="15.00" cx="15.00" rx="15.00" ry="15.00" style="stroke:none;opacity:1;fill:rgb(238,192,75);" transform="matrix(1.00 0.00 0.00 1.00 164.00 4.00 ) " />
    <ellipse id="78" cy="19.00" cx="179.00" rx="15.00" ry="15.00" style="fill:url(#79_HatchBrush);" />
    <ellipse id="83" cy="19.00" cx="164.00" rx="3.00" ry="3.00" style="stroke:rgb(169,169,169);fill:none;stroke-linecap:butt;stroke-miterlimit:9;opacity:1;stroke-width:2;stroke-linejoin:miter;" />
    <ellipse id="84" cy="19.00" cx="164.00" rx="3.00" ry="3.00" style="stroke:none;opacity:1;fill:rgb(255,255,255);" />
    <text id="85" transform="matrix(1.00 0.00 0.00 1.00 0.00 0.00 ) " x="164.00px" y="39.00px" style="stroke:none;clip-path:url(#87_text_clipper);font-family:Microsoft Sans Serif;font-size:8.25pt;opacity:1;">
      <tspan dy="8.25pt" id="89">Configure</tspan>
    </text>
    <text id="91" transform="matrix(1.00 0.00 0.00 1.00 0.00 0.00 ) " x="164.00px" y="51.45px" style="stroke:none;clip-path:url(#93_text_clipper);font-family:Microsoft Sans Serif;font-size:8.25pt;opacity:1;">
      <tspan dy="8.25pt" id="95">Breakout</tspan>
    </text>
    <text id="97" transform="matrix(1.00 0.00 0.00 1.00 0.00 0.00 ) " x="164.00px" y="63.90px" style="stroke:none;clip-path:url(#99_text_clipper);font-family:Microsoft Sans Serif;font-size:8.25pt;opacity:1;">
      <tspan dy="8.25pt" id="101">Board</tspan>
    </text>
    <ellipse id="103" cy="15.00" cx="15.00" rx="15.00" ry="15.00" style="stroke:none;opacity:1;fill:rgb(238,192,75);" transform="matrix(1.00 0.00 0.00 1.00 164.00 84.00 ) " />
    <ellipse id="104" cy="99.00" cx="179.00" rx="15.00" ry="15.00" style="fill:url(#105_HatchBrush);" />
    <ellipse id="109" cy="99.00" cx="164.00" rx="3.00" ry="3.00" style="stroke:rgb(169,169,169);fill:none;stroke-linecap:butt;stroke-miterlimit:9;opacity:1;stroke-width:2;stroke-linejoin:miter;" />
    <ellipse id="110" cy="99.00" cx="164.00" rx="3.00" ry="3.00" style="stroke:none;opacity:1;fill:rgb(255,255,255);" />
    <text id="111" transform="matrix(1.00 0.00 0.00 1.00 0.00 0.00 ) " x="164.00px" y="119.00px" style="stroke:none;clip-path:url(#113_text_clipper);font-family:Microsoft Sans Serif;font-size:8.25pt;opacity:1;">
      <tspan dy="8.25pt" id="115">Breakout</tspan>
    </text>
    <text id="117" transform="matrix(1.00 0.00 0.00 1.00 0.00 0.00 ) " x="164.00px" y="131.45px" style="stroke:none;clip-path:url(#119_text_clipper);font-family:Microsoft Sans Serif;font-size:8.25pt;opacity:1;">
      <tspan dy="8.25pt" id="121">DigitalInput</tspan>
    </text>
    <ellipse id="123" cy="15.00" cx="15.00" rx="15.00" ry="15.00" style="stroke:none;opacity:1;fill:rgb(238,192,75);" transform="matrix(1.00 0.00 0.00 1.00 84.00 4.00 ) " />
    <ellipse id="124" cy="19.00" cx="99.00" rx="15.00" ry="15.00" style="fill:url(#125_HatchBrush);" />
    <ellipse id="129" cy="19.00" cx="84.00" rx="3.00" ry="3.00" style="stroke:rgb(169,169,169);fill:none;stroke-linecap:butt;stroke-miterlimit:9;opacity:1;stroke-width:2;stroke-linejoin:miter;" />
    <ellipse id="130" cy="19.00" cx="84.00" rx="3.00" ry="3.00" style="stroke:none;opacity:1;fill:rgb(255,255,255);" />
    <text id="131" transform="matrix(1.00 0.00 0.00 1.00 0.00 0.00 ) " x="84.00px" y="39.00px" style="stroke:none;clip-path:url(#133_text_clipper);font-family:Microsoft Sans Serif;font-size:8.25pt;opacity:1;">
      <tspan dy="8.25pt" id="135">Create</tspan>
    </text>
    <text id="137" transform="matrix(1.00 0.00 0.00 1.00 0.00 0.00 ) " x="84.00px" y="51.45px" style="stroke:none;clip-path:url(#139_text_clipper);font-family:Microsoft Sans Serif;font-size:8.25pt;opacity:1;">
      <tspan dy="8.25pt" id="141">Context</tspan>
    </text>
    <ellipse id="143" cy="15.00" cx="15.00" rx="15.00" ry="15.00" style="stroke:none;opacity:1;fill:rgb(238,192,75);" transform="matrix(1.00 0.00 0.00 1.00 84.00 84.00 ) " />
    <ellipse id="144" cy="99.00" cx="99.00" rx="15.00" ry="15.00" style="fill:url(#145_HatchBrush);" />
    <ellipse id="149" cy="99.00" cx="84.00" rx="3.00" ry="3.00" style="stroke:rgb(169,169,169);fill:none;stroke-linecap:butt;stroke-miterlimit:9;opacity:1;stroke-width:2;stroke-linejoin:miter;" />
    <ellipse id="150" cy="99.00" cx="84.00" rx="3.00" ry="3.00" style="stroke:none;opacity:1;fill:rgb(255,255,255);" />
    <text id="151" transform="matrix(1.00 0.00 0.00 1.00 0.00 0.00 ) " x="84.00px" y="119.00px" style="stroke:none;clip-path:url(#153_text_clipper);font-family:Microsoft Sans Serif;font-size:8.25pt;opacity:1;">
      <tspan dy="8.25pt" id="155">Heartbeat</tspan>
    </text>
    <text id="157" transform="matrix(1.00 0.00 0.00 1.00 0.00 0.00 ) " x="84.00px" y="131.45px" style="stroke:none;clip-path:url(#159_text_clipper);font-family:Microsoft Sans Serif;font-size:8.25pt;opacity:1;">
      <tspan dy="8.25pt" id="161">Data</tspan>
    </text>
    <ellipse id="163" cy="15.00" cx="15.00" rx="15.00" ry="15.00" style="stroke:none;opacity:1;fill:rgb(238,192,75);" transform="matrix(1.00 0.00 0.00 1.00 4.00 84.00 ) " />
    <ellipse id="164" cy="99.00" cx="19.00" rx="15.00" ry="15.00" style="fill:url(#165_HatchBrush);" />
    <ellipse id="169" cy="99.00" cx="4.00" rx="3.00" ry="3.00" style="stroke:rgb(169,169,169);fill:none;stroke-linecap:butt;stroke-miterlimit:9;opacity:1;stroke-width:2;stroke-linejoin:miter;" />
    <ellipse id="170" cy="99.00" cx="4.00" rx="3.00" ry="3.00" style="stroke:none;opacity:1;fill:rgb(255,255,255);" />
    <text id="171" transform="matrix(1.00 0.00 0.00 1.00 0.00 0.00 ) " x="4.00px" y="119.00px" style="stroke:none;clip-path:url(#173_text_clipper);font-family:Microsoft Sans Serif;font-size:8.25pt;opacity:1;">
      <tspan dy="8.25pt" id="175">Memory</tspan>
    </text>
    <text id="177" transform="matrix(1.00 0.00 0.00 1.00 0.00 0.00 ) " x="4.00px" y="131.45px" style="stroke:none;clip-path:url(#179_text_clipper);font-family:Microsoft Sans Serif;font-size:8.25pt;opacity:1;">
      <tspan dy="8.25pt" id="181">MonitorData</tspan>
    </text>
  </g>
  <defs id="clips_hatches_and_gradients">
    <pattern id="39_HatchBrush" patternContentUnits="userSpaceOnUse" height="8.00" style="stroke-linecap:butt;shape-rendering:crispEdges;" patternUnits="userSpaceOnUse" width="8.00" y="0.00" x="0.00">
      <rect id="40" height="8.00" style="fill:rgb(255,255,255);" width="8.00" y="0.00" x="0.00" />
      <line y1="0.00" style="stroke:rgb(0,0,0);fill:rgb(0,0,0);" id="41" x2="8.00" y2="8.00" x1="0.00" />
      <line y1="0.00" style="stroke:rgb(0,0,0);fill:rgb(0,0,0);" id="42" x2="0.00" y2="8.00" x1="8.00" />
    </pattern>
    <clipPath id="47_text_clipper">
      <rect x="244.00" y="39.00" width="58.66" height="27.65" id="48" />
    </clipPath>
    <clipPath id="53_text_clipper">
      <rect x="244.00" y="51.45" width="58.66" height="27.65" id="54" />
    </clipPath>
    <pattern id="59_HatchBrush" patternContentUnits="userSpaceOnUse" height="8.00" style="stroke-linecap:butt;shape-rendering:crispEdges;" patternUnits="userSpaceOnUse" width="8.00" y="0.00" x="0.00">
      <rect id="60" height="8.00" style="fill:rgb(255,255,255);" width="8.00" y="0.00" x="0.00" />
      <line y1="0.00" style="stroke:rgb(0,0,0);fill:rgb(0,0,0);" id="61" x2="8.00" y2="8.00" x1="0.00" />
      <line y1="0.00" style="stroke:rgb(0,0,0);fill:rgb(0,0,0);" id="62" x2="0.00" y2="8.00" x1="8.00" />
    </pattern>
    <clipPath id="67_text_clipper">
      <rect x="244.00" y="119.00" width="64.20" height="27.65" id="68" />
    </clipPath>
    <clipPath id="73_text_clipper">
      <rect x="244.00" y="131.45" width="64.20" height="27.65" id="74" />
    </clipPath>
    <pattern id="79_HatchBrush" patternContentUnits="userSpaceOnUse" height="8.00" style="stroke-linecap:butt;shape-rendering:crispEdges;" patternUnits="userSpaceOnUse" width="8.00" y="0.00" x="0.00">
      <rect id="80" height="8.00" style="fill:rgb(255,255,255);" width="8.00" y="0.00" x="0.00" />
      <line y1="0.00" style="stroke:rgb(0,0,0);fill:rgb(0,0,0);" id="81" x2="8.00" y2="8.00" x1="0.00" />
      <line y1="0.00" style="stroke:rgb(0,0,0);fill:rgb(0,0,0);" id="82" x2="0.00" y2="8.00" x1="8.00" />
    </pattern>
    <clipPath id="87_text_clipper">
      <rect x="164.00" y="39.00" width="52.85" height="41.48" id="88" />
    </clipPath>
    <clipPath id="93_text_clipper">
      <rect x="164.00" y="51.45" width="52.85" height="41.48" id="94" />
    </clipPath>
    <clipPath id="99_text_clipper">
      <rect x="164.00" y="63.90" width="52.85" height="41.48" id="100" />
    </clipPath>
    <pattern id="105_HatchBrush" patternContentUnits="userSpaceOnUse" height="8.00" style="stroke-linecap:butt;shape-rendering:crispEdges;" patternUnits="userSpaceOnUse" width="8.00" y="0.00" x="0.00">
      <rect id="106" height="8.00" style="fill:rgb(255,255,255);" width="8.00" y="0.00" x="0.00" />
      <line y1="0.00" style="stroke:rgb(0,0,0);fill:rgb(0,0,0);" id="107" x2="8.00" y2="8.00" x1="0.00" />
      <line y1="0.00" style="stroke:rgb(0,0,0);fill:rgb(0,0,0);" id="108" x2="0.00" y2="8.00" x1="8.00" />
    </pattern>
    <clipPath id="113_text_clipper">
      <rect x="164.00" y="119.00" width="60.54" height="27.65" id="114" />
    </clipPath>
    <clipPath id="119_text_clipper">
      <rect x="164.00" y="131.45" width="60.54" height="27.65" id="120" />
    </clipPath>
    <pattern id="125_HatchBrush" patternContentUnits="userSpaceOnUse" height="8.00" style="stroke-linecap:butt;shape-rendering:crispEdges;" patternUnits="userSpaceOnUse" width="8.00" y="0.00" x="0.00">
      <rect id="126" height="8.00" style="fill:rgb(255,255,255);" width="8.00" y="0.00" x="0.00" />
      <line y1="0.00" style="stroke:rgb(0,0,0);fill:rgb(0,0,0);" id="127" x2="8.00" y2="8.00" x1="0.00" />
      <line y1="0.00" style="stroke:rgb(0,0,0);fill:rgb(0,0,0);" id="128" x2="0.00" y2="8.00" x1="8.00" />
    </pattern>
    <clipPath id="133_text_clipper">
      <rect x="84.00" y="39.00" width="42.71" height="27.65" id="134" />
    </clipPath>
    <clipPath id="139_text_clipper">
      <rect x="84.00" y="51.45" width="42.71" height="27.65" id="140" />
    </clipPath>
    <pattern id="145_HatchBrush" patternContentUnits="userSpaceOnUse" height="8.00" style="stroke-linecap:butt;shape-rendering:crispEdges;" patternUnits="userSpaceOnUse" width="8.00" y="0.00" x="0.00">
      <rect id="146" height="8.00" style="fill:rgb(255,255,255);" width="8.00" y="0.00" x="0.00" />
      <line y1="0.00" style="stroke:rgb(0,0,0);fill:rgb(0,0,0);" id="147" x2="8.00" y2="8.00" x1="0.00" />
      <line y1="0.00" style="stroke:rgb(0,0,0);fill:rgb(0,0,0);" id="148" x2="0.00" y2="8.00" x1="8.00" />
    </pattern>
    <clipPath id="153_text_clipper">
      <rect x="84.00" y="119.00" width="53.41" height="27.65" id="154" />
    </clipPath>
    <clipPath id="159_text_clipper">
      <rect x="84.00" y="131.45" width="53.41" height="27.65" id="160" />
    </clipPath>
    <pattern id="165_HatchBrush" patternContentUnits="userSpaceOnUse" height="8.00" style="stroke-linecap:butt;shape-rendering:crispEdges;" patternUnits="userSpaceOnUse" width="8.00" y="0.00" x="0.00">
      <rect id="166" height="8.00" style="fill:rgb(255,255,255);" width="8.00" y="0.00" x="0.00" />
      <line y1="0.00" style="stroke:rgb(0,0,0);fill:rgb(0,0,0);" id="167" x2="8.00" y2="8.00" x1="0.00" />
      <line y1="0.00" style="stroke:rgb(0,0,0);fill:rgb(0,0,0);" id="168" x2="0.00" y2="8.00" x1="8.00" />
    </pattern>
    <clipPath id="173_text_clipper">
      <rect x="4.00" y="119.00" width="65.43" height="27.65" id="174" />
    </clipPath>
    <clipPath id="179_text_clipper">
      <rect x="4.00" y="131.45" width="65.43" height="27.65" id="180" />
    </clipPath>
  </defs>
</svg>